 0 
SECTION
 2 
HEADER
 9 
$ACADVER
 1 
AC1004
 9 
$EXTMIN
 10 
0.0
 20 
0.0
 9 
$EXTMAX
 10 
55.88
 20 
33.02
 9 
$LIMMIN
 10 
0.0
 20 
0.0
 9 
$LIMMAX
 10 
55.88
 20 
33.02
 9 
$INSBASE
 10 
0.0
 20 
0.0
 9 
$VIEWCTR
 10 
27.94
 20 
16.51
 9 
$VIEWSIZE
 40 
33.02
 9 
$ORTHOMODE
 70 
 0 
 9 
$REGENMODE
 70 
 1 
 9 
$FILLMODE
 70 
 1 
 9 
$QTEXTMODE
 70 
 0 
 9 
$DRAGMODE
 70 
 2 
 9 
$LTSCALE
 40 
1.0
 9 
$OSMODE
 70 
 0 
 9 
$ATTMODE
 70 
 1 
 9 
$TEXTSIZE
 40 
0.2
 9 
$TRACEWID
 40 
0.05
 9 
$TEXTSTYLE
 7 
STANDARD
 9 
$CLAYER
 8 
0
 9 
$CELTYPE
 6 
BYLAYER
 9 
$CECOLOR
 62 
 256 
 9 
$DIMSCALE
 40 
1.0
 9 
$DIMLFAC
 40 
1.0
 9 
$LUNITS
 70 
 2 
 9 
$LUPREC
 70 
 4 
 9 
$AXISMODE
 70 
 0 
 9 
$AXISUNIT
 10 
0.0
 20 
0.0
 9 
$SKETCHINC
 40 
0.1
 9 
$MENU
 1 
acad
 9 
$ELEVATION
 40 
0.0
 9 
$THICKNESS
 40 
0.0
 9 
$VIEWDIR
 10 
0.0
 20 
0.0
 30 
1.0
 9 
$LIMCHECK
 70 
 0 
 9 
$BLIPMODE
 70 
 1 
 9 
$FASTZOOM
 70 
 1 
 9 
$SKPOLY
 70 
 0 
 9 
$ANGBASE
 50 
0.0
 9 
$ANGDIR
 70 
 0 
 9 
$PDMODE
 70 
 0 
 9 
$PDSIZE
 40 
0.0
 9 
$PLINEWID
 40 
0.0
 9 
$COORDS
 70 
 0 
 9 
$ATTDIA
 70 
 0 
 9 
$ATTREQ
 70 
 1 
 0 
ENDSEC
 0 
SECTION
 2 
TABLES
 0 
TABLE
 2 
LTYPE
 70 
 10 
 0 
LTYPE
 2 
CONTINUOUS
 70 
 64 
 3 
Solid line
 72 
 65 
 73 
 0 
 40 
0.0
 0 
ENDTAB
 0 
TABLE
 2 
LAYER
 70 
 153 
 0 
LAYER
 2 
0
 70 
 64 
 62 
 7 
 6 
CONTINUOUS
 0 
ENDTAB
 0 
ENDSEC
 0 
SECTION
 2 
BLOCKS
 0 
ENDSEC
 0 
SECTION
 2 
ENTITIES
 0 
LINE
 8 
0
 62 
 7 
 10 
0.0
 20 
33.02
 11 
55.88
 21 
33.02
 0 
LINE
 8 
0
 62 
 7 
 10 
55.88
 20 
33.02
 11 
55.88
 21 
0.0
 0 
LINE
 8 
0
 62 
 7 
 10 
55.88
 20 
0.0
 11 
0.0
 21 
0.0
 0 
LINE
 8 
0
 62 
 7 
 10 
0.0
 20 
0.0
 11 
0.0
 21 
33.02
 0 
LINE
 8 
0
 62 
 7 
 10 
28.499
 20 
22.301
 11 
29.921
 21 
22.301
 0 
LINE
 8 
0
 62 
 7 
 10 
29.921
 20 
22.301
 11 
29.921
 21 
20.879
 0 
LINE
 8 
0
 62 
 7 
 10 
29.921
 20 
20.879
 11 
28.499
 21 
20.879
 0 
LINE
 8 
0
 62 
 7 
 10 
28.499
 20 
20.879
 11 
28.499
 21 
22.301
 0 
CIRCLE
 8 
0
 62 
 7 
 10 
29.21
 20 
21.59
 40 
0.356
 0 
CIRCLE
 8 
0
 62 
 7 
 10 
29.21
 20 
19.05
 40 
0.711
 0 
CIRCLE
 8 
0
 62 
 7 
 10 
29.21
 20 
19.05
 40 
0.356
 0 
CIRCLE
 8 
0
 62 
 7 
 10 
29.21
 20 
16.51
 40 
0.711
 0 
CIRCLE
 8 
0
 62 
 7 
 10 
29.21
 20 
16.51
 40 
0.356
 0 
CIRCLE
 8 
0
 62 
 7 
 10 
29.21
 20 
13.97
 40 
0.711
 0 
CIRCLE
 8 
0
 62 
 7 
 10 
29.21
 20 
13.97
 40 
0.356
 0 
CIRCLE
 8 
0
 62 
 7 
 10 
29.21
 20 
11.43
 40 
0.711
 0 
CIRCLE
 8 
0
 62 
 7 
 10 
29.21
 20 
11.43
 40 
0.356
 0 
CIRCLE
 8 
0
 62 
 7 
 10 
29.21
 20 
8.89
 40 
0.711
 0 
CIRCLE
 8 
0
 62 
 7 
 10 
29.21
 20 
8.89
 40 
0.356
 0 
CIRCLE
 8 
0
 62 
 7 
 10 
29.21
 20 
6.35
 40 
0.711
 0 
CIRCLE
 8 
0
 62 
 7 
 10 
29.21
 20 
6.35
 40 
0.356
 0 
CIRCLE
 8 
0
 62 
 7 
 10 
36.83
 20 
6.35
 40 
0.711
 0 
CIRCLE
 8 
0
 62 
 7 
 10 
36.83
 20 
6.35
 40 
0.356
 0 
CIRCLE
 8 
0
 62 
 7 
 10 
36.83
 20 
8.89
 40 
0.711
 0 
CIRCLE
 8 
0
 62 
 7 
 10 
36.83
 20 
8.89
 40 
0.356
 0 
CIRCLE
 8 
0
 62 
 7 
 10 
36.83
 20 
11.43
 40 
0.711
 0 
CIRCLE
 8 
0
 62 
 7 
 10 
36.83
 20 
11.43
 40 
0.356
 0 
CIRCLE
 8 
0
 62 
 7 
 10 
36.83
 20 
13.97
 40 
0.711
 0 
CIRCLE
 8 
0
 62 
 7 
 10 
36.83
 20 
13.97
 40 
0.356
 0 
CIRCLE
 8 
0
 62 
 7 
 10 
36.83
 20 
16.51
 40 
0.711
 0 
CIRCLE
 8 
0
 62 
 7 
 10 
36.83
 20 
16.51
 40 
0.356
 0 
CIRCLE
 8 
0
 62 
 7 
 10 
36.83
 20 
19.05
 40 
0.711
 0 
CIRCLE
 8 
0
 62 
 7 
 10 
36.83
 20 
19.05
 40 
0.356
 0 
CIRCLE
 8 
0
 62 
 7 
 10 
36.83
 20 
21.59
 40 
0.711
 0 
CIRCLE
 8 
0
 62 
 7 
 10 
36.83
 20 
21.59
 40 
0.356
 0 
CIRCLE
 8 
0
 62 
 7 
 10 
49.53
 20 
15.24
 40 
0.711
 0 
CIRCLE
 8 
0
 62 
 7 
 10 
49.53
 20 
15.24
 40 
0.356
 0 
CIRCLE
 8 
0
 62 
 7 
 10 
49.53
 20 
8.89
 40 
0.711
 0 
CIRCLE
 8 
0
 62 
 7 
 10 
49.53
 20 
8.89
 40 
0.356
 0 
CIRCLE
 8 
0
 62 
 7 
 10 
15.24
 20 
25.4
 40 
0.711
 0 
CIRCLE
 8 
0
 62 
 7 
 10 
15.24
 20 
25.4
 40 
0.356
 0 
CIRCLE
 8 
0
 62 
 7 
 10 
21.59
 20 
25.4
 40 
0.711
 0 
CIRCLE
 8 
0
 62 
 7 
 10 
21.59
 20 
25.4
 40 
0.356
 0 
CIRCLE
 8 
0
 62 
 7 
 10 
13.97
 20 
16.51
 40 
0.711
 0 
CIRCLE
 8 
0
 62 
 7 
 10 
13.97
 20 
16.51
 40 
0.356
 0 
CIRCLE
 8 
0
 62 
 7 
 10 
13.97
 20 
10.16
 40 
0.711
 0 
CIRCLE
 8 
0
 62 
 7 
 10 
13.97
 20 
10.16
 40 
0.356
 0 
CIRCLE
 8 
0
 62 
 7 
 10 
21.59
 20 
6.35
 40 
0.711
 0 
CIRCLE
 8 
0
 62 
 7 
 10 
21.59
 20 
6.35
 40 
0.356
 0 
CIRCLE
 8 
0
 62 
 7 
 10 
21.59
 20 
16.51
 40 
0.711
 0 
CIRCLE
 8 
0
 62 
 7 
 10 
21.59
 20 
16.51
 40 
0.356
 0 
CIRCLE
 8 
0
 62 
 7 
 10 
5.08
 20 
19.05
 40 
0.813
 0 
CIRCLE
 8 
0
 62 
 7 
 10 
5.08
 20 
19.05
 40 
0.457
 0 
CIRCLE
 8 
0
 62 
 7 
 10 
5.08
 20 
24.13
 40 
0.813
 0 
CIRCLE
 8 
0
 62 
 7 
 10 
5.08
 20 
24.13
 40 
0.457
 0 
LINE
 8 
0
 62 
 7 
 10 
42.215
 20 
14.935
 11 
44.12
 21 
14.935
 0 
LINE
 8 
0
 62 
 7 
 10 
44.12
 20 
14.935
 11 
44.12
 21 
13.03
 0 
LINE
 8 
0
 62 
 7 
 10 
44.12
 20 
13.03
 11 
42.215
 21 
13.03
 0 
LINE
 8 
0
 62 
 7 
 10 
42.215
 20 
13.03
 11 
42.215
 21 
14.935
 0 
CIRCLE
 8 
0
 62 
 7 
 10 
43.18
 20 
13.97
 40 
0.508
 0 
CIRCLE
 8 
0
 62 
 7 
 10 
43.18
 20 
11.43
 40 
0.965
 0 
CIRCLE
 8 
0
 62 
 7 
 10 
43.18
 20 
11.43
 40 
0.508
 0 
CIRCLE
 8 
0
 62 
 7 
 10 
43.18
 20 
8.89
 40 
0.965
 0 
CIRCLE
 8 
0
 62 
 7 
 10 
43.18
 20 
8.89
 40 
0.508
 0 
ENDSEC
 0 
EOF
